<mxfile host="app.diagrams.net" modified="2022-06-27T02:08:03.024Z" agent="5.0 (Windows NT 10.0; Win64; x64) AppleWebKit/537.36 (KHTML, like Gecko) Chrome/102.0.0.0 Safari/537.36" etag="9alQIAeXE2o4lixl_wd1" version="20.0.3" type="github">
  <diagram id="C5RBs43oDa-KdzZeNtuy" name="Page-1">
    <mxGraphModel dx="1278" dy="571" grid="1" gridSize="10" guides="1" tooltips="1" connect="1" arrows="1" fold="1" page="1" pageScale="1" pageWidth="827" pageHeight="1169" math="0" shadow="0">
      <root>
        <mxCell id="WIyWlLk6GJQsqaUBKTNV-0" />
        <mxCell id="WIyWlLk6GJQsqaUBKTNV-1" parent="WIyWlLk6GJQsqaUBKTNV-0" />
        <mxCell id="QxHgRlPawuZaO6cSkPph-24" style="edgeStyle=orthogonalEdgeStyle;rounded=0;orthogonalLoop=1;jettySize=auto;html=1;exitX=0.5;exitY=1;exitDx=0;exitDy=0;entryX=0.5;entryY=0;entryDx=0;entryDy=0;fontSize=11;" edge="1" parent="WIyWlLk6GJQsqaUBKTNV-1" source="QxHgRlPawuZaO6cSkPph-0" target="QxHgRlPawuZaO6cSkPph-1">
          <mxGeometry relative="1" as="geometry" />
        </mxCell>
        <mxCell id="QxHgRlPawuZaO6cSkPph-0" value="Mulai" style="ellipse;whiteSpace=wrap;html=1;" vertex="1" parent="WIyWlLk6GJQsqaUBKTNV-1">
          <mxGeometry x="40" y="30" width="85" height="50" as="geometry" />
        </mxCell>
        <mxCell id="QxHgRlPawuZaO6cSkPph-25" style="edgeStyle=orthogonalEdgeStyle;rounded=0;orthogonalLoop=1;jettySize=auto;html=1;exitX=1;exitY=0.5;exitDx=0;exitDy=0;entryX=0;entryY=0.5;entryDx=0;entryDy=0;fontSize=11;" edge="1" parent="WIyWlLk6GJQsqaUBKTNV-1" source="QxHgRlPawuZaO6cSkPph-1" target="QxHgRlPawuZaO6cSkPph-3">
          <mxGeometry relative="1" as="geometry" />
        </mxCell>
        <mxCell id="QxHgRlPawuZaO6cSkPph-1" value="Kebutuhan Posisi Baru" style="rounded=1;whiteSpace=wrap;html=1;" vertex="1" parent="WIyWlLk6GJQsqaUBKTNV-1">
          <mxGeometry x="27.5" y="115" width="110" height="50" as="geometry" />
        </mxCell>
        <mxCell id="QxHgRlPawuZaO6cSkPph-28" style="edgeStyle=orthogonalEdgeStyle;rounded=0;orthogonalLoop=1;jettySize=auto;html=1;exitX=1;exitY=0.5;exitDx=0;exitDy=0;entryX=0;entryY=0.5;entryDx=0;entryDy=0;fontSize=11;" edge="1" parent="WIyWlLk6GJQsqaUBKTNV-1" source="QxHgRlPawuZaO6cSkPph-2" target="QxHgRlPawuZaO6cSkPph-7">
          <mxGeometry relative="1" as="geometry" />
        </mxCell>
        <mxCell id="QxHgRlPawuZaO6cSkPph-2" value="Menganalisa deskripsi pekerjaan dan persyaratan kompetensi,pendidikan" style="rounded=1;whiteSpace=wrap;html=1;" vertex="1" parent="WIyWlLk6GJQsqaUBKTNV-1">
          <mxGeometry x="330" y="107.5" width="130" height="65" as="geometry" />
        </mxCell>
        <mxCell id="QxHgRlPawuZaO6cSkPph-26" style="edgeStyle=orthogonalEdgeStyle;rounded=0;orthogonalLoop=1;jettySize=auto;html=1;exitX=1;exitY=0.5;exitDx=0;exitDy=0;fontSize=11;" edge="1" parent="WIyWlLk6GJQsqaUBKTNV-1" source="QxHgRlPawuZaO6cSkPph-3" target="QxHgRlPawuZaO6cSkPph-4">
          <mxGeometry relative="1" as="geometry" />
        </mxCell>
        <mxCell id="QxHgRlPawuZaO6cSkPph-30" style="edgeStyle=orthogonalEdgeStyle;rounded=0;orthogonalLoop=1;jettySize=auto;html=1;exitX=0.5;exitY=1;exitDx=0;exitDy=0;fontSize=11;entryX=0.5;entryY=0;entryDx=0;entryDy=0;" edge="1" parent="WIyWlLk6GJQsqaUBKTNV-1" source="QxHgRlPawuZaO6cSkPph-3" target="QxHgRlPawuZaO6cSkPph-6">
          <mxGeometry relative="1" as="geometry">
            <mxPoint x="210" y="190" as="targetPoint" />
          </mxGeometry>
        </mxCell>
        <mxCell id="QxHgRlPawuZaO6cSkPph-3" value="&lt;font style=&quot;font-size: 11px;&quot;&gt;Rekrut &lt;br&gt;Pegawai &lt;br&gt;Baru&lt;/font&gt;" style="rhombus;whiteSpace=wrap;html=1;" vertex="1" parent="WIyWlLk6GJQsqaUBKTNV-1">
          <mxGeometry x="170" y="100" width="80" height="80" as="geometry" />
        </mxCell>
        <mxCell id="QxHgRlPawuZaO6cSkPph-27" style="edgeStyle=orthogonalEdgeStyle;rounded=0;orthogonalLoop=1;jettySize=auto;html=1;exitX=1;exitY=0.5;exitDx=0;exitDy=0;entryX=0;entryY=0.5;entryDx=0;entryDy=0;fontSize=11;" edge="1" parent="WIyWlLk6GJQsqaUBKTNV-1" source="QxHgRlPawuZaO6cSkPph-4" target="QxHgRlPawuZaO6cSkPph-2">
          <mxGeometry relative="1" as="geometry" />
        </mxCell>
        <mxCell id="QxHgRlPawuZaO6cSkPph-4" value="Yes" style="ellipse;whiteSpace=wrap;html=1;aspect=fixed;fontSize=11;" vertex="1" parent="WIyWlLk6GJQsqaUBKTNV-1">
          <mxGeometry x="270" y="122.5" width="35" height="35" as="geometry" />
        </mxCell>
        <mxCell id="QxHgRlPawuZaO6cSkPph-31" style="edgeStyle=orthogonalEdgeStyle;rounded=0;orthogonalLoop=1;jettySize=auto;html=1;exitX=0.5;exitY=1;exitDx=0;exitDy=0;entryX=0.5;entryY=0;entryDx=0;entryDy=0;fontSize=11;" edge="1" parent="WIyWlLk6GJQsqaUBKTNV-1" source="QxHgRlPawuZaO6cSkPph-6" target="QxHgRlPawuZaO6cSkPph-11">
          <mxGeometry relative="1" as="geometry" />
        </mxCell>
        <mxCell id="QxHgRlPawuZaO6cSkPph-6" value="No" style="ellipse;whiteSpace=wrap;html=1;aspect=fixed;fontSize=11;" vertex="1" parent="WIyWlLk6GJQsqaUBKTNV-1">
          <mxGeometry x="192.5" y="197.5" width="35" height="35" as="geometry" />
        </mxCell>
        <mxCell id="QxHgRlPawuZaO6cSkPph-29" style="edgeStyle=orthogonalEdgeStyle;rounded=0;orthogonalLoop=1;jettySize=auto;html=1;exitX=1;exitY=0.5;exitDx=0;exitDy=0;entryX=0;entryY=0.5;entryDx=0;entryDy=0;fontSize=11;" edge="1" parent="WIyWlLk6GJQsqaUBKTNV-1" source="QxHgRlPawuZaO6cSkPph-7" target="QxHgRlPawuZaO6cSkPph-8">
          <mxGeometry relative="1" as="geometry" />
        </mxCell>
        <mxCell id="QxHgRlPawuZaO6cSkPph-7" value="Mengiklankan Lowongan Pekerjaan" style="rounded=1;whiteSpace=wrap;html=1;fontSize=11;" vertex="1" parent="WIyWlLk6GJQsqaUBKTNV-1">
          <mxGeometry x="490" y="110" width="120" height="60" as="geometry" />
        </mxCell>
        <mxCell id="QxHgRlPawuZaO6cSkPph-33" style="edgeStyle=orthogonalEdgeStyle;rounded=0;orthogonalLoop=1;jettySize=auto;html=1;exitX=0.5;exitY=1;exitDx=0;exitDy=0;entryX=0.5;entryY=0;entryDx=0;entryDy=0;fontSize=11;" edge="1" parent="WIyWlLk6GJQsqaUBKTNV-1" source="QxHgRlPawuZaO6cSkPph-8" target="QxHgRlPawuZaO6cSkPph-9">
          <mxGeometry relative="1" as="geometry" />
        </mxCell>
        <mxCell id="QxHgRlPawuZaO6cSkPph-8" value="Melakukan Proses Seleksi" style="rounded=1;whiteSpace=wrap;html=1;fontSize=11;" vertex="1" parent="WIyWlLk6GJQsqaUBKTNV-1">
          <mxGeometry x="640" y="112.5" width="120" height="60" as="geometry" />
        </mxCell>
        <mxCell id="QxHgRlPawuZaO6cSkPph-34" style="edgeStyle=orthogonalEdgeStyle;rounded=0;orthogonalLoop=1;jettySize=auto;html=1;exitX=0;exitY=0.5;exitDx=0;exitDy=0;entryX=0.5;entryY=0;entryDx=0;entryDy=0;fontSize=11;" edge="1" parent="WIyWlLk6GJQsqaUBKTNV-1" source="QxHgRlPawuZaO6cSkPph-9" target="QxHgRlPawuZaO6cSkPph-10">
          <mxGeometry relative="1" as="geometry" />
        </mxCell>
        <mxCell id="QxHgRlPawuZaO6cSkPph-9" value="Verifikasi surat perjanjian kerahasiaan" style="rounded=1;whiteSpace=wrap;html=1;fontSize=11;" vertex="1" parent="WIyWlLk6GJQsqaUBKTNV-1">
          <mxGeometry x="640" y="197.5" width="120" height="60" as="geometry" />
        </mxCell>
        <mxCell id="QxHgRlPawuZaO6cSkPph-37" style="edgeStyle=orthogonalEdgeStyle;rounded=0;orthogonalLoop=1;jettySize=auto;html=1;exitX=1;exitY=0.5;exitDx=0;exitDy=0;fontSize=11;entryX=0;entryY=0.5;entryDx=0;entryDy=0;" edge="1" parent="WIyWlLk6GJQsqaUBKTNV-1" source="QxHgRlPawuZaO6cSkPph-10" target="QxHgRlPawuZaO6cSkPph-12">
          <mxGeometry relative="1" as="geometry">
            <mxPoint x="410" y="340" as="targetPoint" />
          </mxGeometry>
        </mxCell>
        <mxCell id="QxHgRlPawuZaO6cSkPph-38" style="edgeStyle=orthogonalEdgeStyle;rounded=0;orthogonalLoop=1;jettySize=auto;html=1;exitX=0.5;exitY=1;exitDx=0;exitDy=0;entryX=0.5;entryY=0;entryDx=0;entryDy=0;fontSize=11;" edge="1" parent="WIyWlLk6GJQsqaUBKTNV-1" source="QxHgRlPawuZaO6cSkPph-10" target="QxHgRlPawuZaO6cSkPph-13">
          <mxGeometry relative="1" as="geometry" />
        </mxCell>
        <mxCell id="QxHgRlPawuZaO6cSkPph-10" value="Perlu&lt;br&gt;Training" style="rhombus;whiteSpace=wrap;html=1;fontSize=11;" vertex="1" parent="WIyWlLk6GJQsqaUBKTNV-1">
          <mxGeometry x="305" y="300" width="80" height="80" as="geometry" />
        </mxCell>
        <mxCell id="QxHgRlPawuZaO6cSkPph-36" style="edgeStyle=orthogonalEdgeStyle;rounded=0;orthogonalLoop=1;jettySize=auto;html=1;exitX=1;exitY=0.5;exitDx=0;exitDy=0;entryX=0;entryY=0.5;entryDx=0;entryDy=0;fontSize=11;" edge="1" parent="WIyWlLk6GJQsqaUBKTNV-1" source="QxHgRlPawuZaO6cSkPph-11" target="QxHgRlPawuZaO6cSkPph-10">
          <mxGeometry relative="1" as="geometry" />
        </mxCell>
        <mxCell id="QxHgRlPawuZaO6cSkPph-11" value="Memindahkan pegawai saat ini ke posisi baru" style="rounded=1;whiteSpace=wrap;html=1;fontSize=11;" vertex="1" parent="WIyWlLk6GJQsqaUBKTNV-1">
          <mxGeometry x="150" y="310" width="120" height="60" as="geometry" />
        </mxCell>
        <mxCell id="QxHgRlPawuZaO6cSkPph-39" style="edgeStyle=orthogonalEdgeStyle;rounded=0;orthogonalLoop=1;jettySize=auto;html=1;exitX=1;exitY=0.5;exitDx=0;exitDy=0;entryX=0;entryY=0.5;entryDx=0;entryDy=0;fontSize=11;" edge="1" parent="WIyWlLk6GJQsqaUBKTNV-1" source="QxHgRlPawuZaO6cSkPph-12" target="QxHgRlPawuZaO6cSkPph-14">
          <mxGeometry relative="1" as="geometry" />
        </mxCell>
        <mxCell id="QxHgRlPawuZaO6cSkPph-12" value="Yes" style="ellipse;whiteSpace=wrap;html=1;aspect=fixed;fontSize=11;" vertex="1" parent="WIyWlLk6GJQsqaUBKTNV-1">
          <mxGeometry x="414" y="322.5" width="35" height="35" as="geometry" />
        </mxCell>
        <mxCell id="QxHgRlPawuZaO6cSkPph-49" style="edgeStyle=orthogonalEdgeStyle;rounded=0;orthogonalLoop=1;jettySize=auto;html=1;exitX=1;exitY=0.5;exitDx=0;exitDy=0;entryX=0;entryY=0.5;entryDx=0;entryDy=0;fontSize=11;" edge="1" parent="WIyWlLk6GJQsqaUBKTNV-1" source="QxHgRlPawuZaO6cSkPph-13" target="QxHgRlPawuZaO6cSkPph-16">
          <mxGeometry relative="1" as="geometry" />
        </mxCell>
        <mxCell id="QxHgRlPawuZaO6cSkPph-13" value="No" style="ellipse;whiteSpace=wrap;html=1;aspect=fixed;fontSize=11;" vertex="1" parent="WIyWlLk6GJQsqaUBKTNV-1">
          <mxGeometry x="327.5" y="418.75" width="35" height="35" as="geometry" />
        </mxCell>
        <mxCell id="QxHgRlPawuZaO6cSkPph-40" style="edgeStyle=orthogonalEdgeStyle;rounded=0;orthogonalLoop=1;jettySize=auto;html=1;exitX=1;exitY=0.5;exitDx=0;exitDy=0;entryX=0;entryY=0.5;entryDx=0;entryDy=0;fontSize=11;" edge="1" parent="WIyWlLk6GJQsqaUBKTNV-1" source="QxHgRlPawuZaO6cSkPph-14" target="QxHgRlPawuZaO6cSkPph-15">
          <mxGeometry relative="1" as="geometry" />
        </mxCell>
        <mxCell id="QxHgRlPawuZaO6cSkPph-14" value="Merencanakan dan mengadakan Training" style="rounded=1;whiteSpace=wrap;html=1;fontSize=11;" vertex="1" parent="WIyWlLk6GJQsqaUBKTNV-1">
          <mxGeometry x="480" y="310" width="120" height="60" as="geometry" />
        </mxCell>
        <mxCell id="QxHgRlPawuZaO6cSkPph-41" style="edgeStyle=orthogonalEdgeStyle;rounded=0;orthogonalLoop=1;jettySize=auto;html=1;exitX=0.5;exitY=1;exitDx=0;exitDy=0;entryX=0.5;entryY=0;entryDx=0;entryDy=0;fontSize=11;" edge="1" parent="WIyWlLk6GJQsqaUBKTNV-1" source="QxHgRlPawuZaO6cSkPph-15" target="QxHgRlPawuZaO6cSkPph-16">
          <mxGeometry relative="1" as="geometry" />
        </mxCell>
        <mxCell id="QxHgRlPawuZaO6cSkPph-15" value="Mengevaluasi hasil training" style="rounded=1;whiteSpace=wrap;html=1;fontSize=11;" vertex="1" parent="WIyWlLk6GJQsqaUBKTNV-1">
          <mxGeometry x="630" y="310" width="120" height="60" as="geometry" />
        </mxCell>
        <mxCell id="QxHgRlPawuZaO6cSkPph-42" style="edgeStyle=orthogonalEdgeStyle;rounded=0;orthogonalLoop=1;jettySize=auto;html=1;exitX=0.5;exitY=1;exitDx=0;exitDy=0;entryX=0.5;entryY=0;entryDx=0;entryDy=0;fontSize=11;" edge="1" parent="WIyWlLk6GJQsqaUBKTNV-1" source="QxHgRlPawuZaO6cSkPph-16" target="QxHgRlPawuZaO6cSkPph-17">
          <mxGeometry relative="1" as="geometry" />
        </mxCell>
        <mxCell id="QxHgRlPawuZaO6cSkPph-16" value="Memonitoring Performa Kerja" style="rounded=1;whiteSpace=wrap;html=1;fontSize=11;" vertex="1" parent="WIyWlLk6GJQsqaUBKTNV-1">
          <mxGeometry x="645" y="410" width="90" height="52.5" as="geometry" />
        </mxCell>
        <mxCell id="QxHgRlPawuZaO6cSkPph-43" style="edgeStyle=orthogonalEdgeStyle;rounded=0;orthogonalLoop=1;jettySize=auto;html=1;exitX=0;exitY=0.5;exitDx=0;exitDy=0;entryX=1;entryY=0.5;entryDx=0;entryDy=0;fontSize=11;" edge="1" parent="WIyWlLk6GJQsqaUBKTNV-1" source="QxHgRlPawuZaO6cSkPph-17" target="QxHgRlPawuZaO6cSkPph-18">
          <mxGeometry relative="1" as="geometry" />
        </mxCell>
        <mxCell id="QxHgRlPawuZaO6cSkPph-54" style="edgeStyle=orthogonalEdgeStyle;rounded=0;orthogonalLoop=1;jettySize=auto;html=1;exitX=1;exitY=0.5;exitDx=0;exitDy=0;entryX=0;entryY=0.5;entryDx=0;entryDy=0;fontSize=11;" edge="1" parent="WIyWlLk6GJQsqaUBKTNV-1" source="QxHgRlPawuZaO6cSkPph-17" target="QxHgRlPawuZaO6cSkPph-53">
          <mxGeometry relative="1" as="geometry" />
        </mxCell>
        <mxCell id="QxHgRlPawuZaO6cSkPph-17" value="Kompetensi&lt;br&gt;Terpenuhi" style="rhombus;whiteSpace=wrap;html=1;fontSize=11;" vertex="1" parent="WIyWlLk6GJQsqaUBKTNV-1">
          <mxGeometry x="650" y="490" width="80" height="80" as="geometry" />
        </mxCell>
        <mxCell id="QxHgRlPawuZaO6cSkPph-44" style="edgeStyle=orthogonalEdgeStyle;rounded=0;orthogonalLoop=1;jettySize=auto;html=1;exitX=0;exitY=0.5;exitDx=0;exitDy=0;entryX=1;entryY=0.5;entryDx=0;entryDy=0;fontSize=11;" edge="1" parent="WIyWlLk6GJQsqaUBKTNV-1" source="QxHgRlPawuZaO6cSkPph-18" target="QxHgRlPawuZaO6cSkPph-19">
          <mxGeometry relative="1" as="geometry" />
        </mxCell>
        <mxCell id="QxHgRlPawuZaO6cSkPph-18" value="Yes" style="ellipse;whiteSpace=wrap;html=1;aspect=fixed;fontSize=11;" vertex="1" parent="WIyWlLk6GJQsqaUBKTNV-1">
          <mxGeometry x="580" y="512.5" width="35" height="35" as="geometry" />
        </mxCell>
        <mxCell id="QxHgRlPawuZaO6cSkPph-45" style="edgeStyle=orthogonalEdgeStyle;rounded=0;orthogonalLoop=1;jettySize=auto;html=1;exitX=0;exitY=0.5;exitDx=0;exitDy=0;entryX=1;entryY=0.5;entryDx=0;entryDy=0;fontSize=11;" edge="1" parent="WIyWlLk6GJQsqaUBKTNV-1" source="QxHgRlPawuZaO6cSkPph-19" target="QxHgRlPawuZaO6cSkPph-20">
          <mxGeometry relative="1" as="geometry" />
        </mxCell>
        <mxCell id="QxHgRlPawuZaO6cSkPph-19" value="Memonitoring Kedislipinan Kerja" style="rounded=1;whiteSpace=wrap;html=1;fontSize=11;" vertex="1" parent="WIyWlLk6GJQsqaUBKTNV-1">
          <mxGeometry x="420" y="500" width="120" height="60" as="geometry" />
        </mxCell>
        <mxCell id="QxHgRlPawuZaO6cSkPph-46" style="edgeStyle=orthogonalEdgeStyle;rounded=0;orthogonalLoop=1;jettySize=auto;html=1;exitX=0;exitY=0.5;exitDx=0;exitDy=0;entryX=1;entryY=0.5;entryDx=0;entryDy=0;fontSize=11;" edge="1" parent="WIyWlLk6GJQsqaUBKTNV-1" source="QxHgRlPawuZaO6cSkPph-20" target="QxHgRlPawuZaO6cSkPph-22">
          <mxGeometry relative="1" as="geometry" />
        </mxCell>
        <mxCell id="QxHgRlPawuZaO6cSkPph-47" style="edgeStyle=orthogonalEdgeStyle;rounded=0;orthogonalLoop=1;jettySize=auto;html=1;exitX=0.5;exitY=1;exitDx=0;exitDy=0;entryX=0.5;entryY=0;entryDx=0;entryDy=0;fontSize=11;" edge="1" parent="WIyWlLk6GJQsqaUBKTNV-1" source="QxHgRlPawuZaO6cSkPph-20" target="QxHgRlPawuZaO6cSkPph-21">
          <mxGeometry relative="1" as="geometry" />
        </mxCell>
        <mxCell id="QxHgRlPawuZaO6cSkPph-20" value="Tindak Lanjut&amp;nbsp;&lt;br&gt;Kedislipinan" style="rhombus;whiteSpace=wrap;html=1;fontSize=11;" vertex="1" parent="WIyWlLk6GJQsqaUBKTNV-1">
          <mxGeometry x="305" y="490" width="80" height="80" as="geometry" />
        </mxCell>
        <mxCell id="QxHgRlPawuZaO6cSkPph-48" style="edgeStyle=orthogonalEdgeStyle;rounded=0;orthogonalLoop=1;jettySize=auto;html=1;exitX=1;exitY=0.5;exitDx=0;exitDy=0;entryX=0;entryY=0.5;entryDx=0;entryDy=0;fontSize=11;" edge="1" parent="WIyWlLk6GJQsqaUBKTNV-1" source="QxHgRlPawuZaO6cSkPph-21" target="QxHgRlPawuZaO6cSkPph-23">
          <mxGeometry relative="1" as="geometry" />
        </mxCell>
        <mxCell id="QxHgRlPawuZaO6cSkPph-21" value="Yes" style="ellipse;whiteSpace=wrap;html=1;aspect=fixed;fontSize=11;" vertex="1" parent="WIyWlLk6GJQsqaUBKTNV-1">
          <mxGeometry x="327.5" y="605" width="35" height="35" as="geometry" />
        </mxCell>
        <mxCell id="QxHgRlPawuZaO6cSkPph-50" style="edgeStyle=orthogonalEdgeStyle;rounded=0;orthogonalLoop=1;jettySize=auto;html=1;exitX=0;exitY=0.5;exitDx=0;exitDy=0;entryX=0.5;entryY=1;entryDx=0;entryDy=0;fontSize=11;" edge="1" parent="WIyWlLk6GJQsqaUBKTNV-1" source="QxHgRlPawuZaO6cSkPph-22" target="QxHgRlPawuZaO6cSkPph-1">
          <mxGeometry relative="1" as="geometry" />
        </mxCell>
        <mxCell id="QxHgRlPawuZaO6cSkPph-22" value="No" style="ellipse;whiteSpace=wrap;html=1;aspect=fixed;fontSize=11;" vertex="1" parent="WIyWlLk6GJQsqaUBKTNV-1">
          <mxGeometry x="227.5" y="512.5" width="35" height="35" as="geometry" />
        </mxCell>
        <mxCell id="QxHgRlPawuZaO6cSkPph-52" style="edgeStyle=orthogonalEdgeStyle;rounded=0;orthogonalLoop=1;jettySize=auto;html=1;exitX=1;exitY=0.5;exitDx=0;exitDy=0;entryX=0;entryY=0.5;entryDx=0;entryDy=0;fontSize=11;" edge="1" parent="WIyWlLk6GJQsqaUBKTNV-1" source="QxHgRlPawuZaO6cSkPph-23" target="QxHgRlPawuZaO6cSkPph-51">
          <mxGeometry relative="1" as="geometry" />
        </mxCell>
        <mxCell id="QxHgRlPawuZaO6cSkPph-23" value="Penghentian Kerja / Sanksi" style="rounded=1;whiteSpace=wrap;html=1;fontSize=11;" vertex="1" parent="WIyWlLk6GJQsqaUBKTNV-1">
          <mxGeometry x="437" y="597.5" width="86" height="50" as="geometry" />
        </mxCell>
        <mxCell id="QxHgRlPawuZaO6cSkPph-51" value="Selesai" style="ellipse;whiteSpace=wrap;html=1;" vertex="1" parent="WIyWlLk6GJQsqaUBKTNV-1">
          <mxGeometry x="570" y="601.25" width="70" height="42.5" as="geometry" />
        </mxCell>
        <mxCell id="QxHgRlPawuZaO6cSkPph-55" style="edgeStyle=orthogonalEdgeStyle;rounded=0;orthogonalLoop=1;jettySize=auto;html=1;exitX=0.5;exitY=0;exitDx=0;exitDy=0;entryX=0.5;entryY=0;entryDx=0;entryDy=0;fontSize=11;" edge="1" parent="WIyWlLk6GJQsqaUBKTNV-1" source="QxHgRlPawuZaO6cSkPph-53" target="QxHgRlPawuZaO6cSkPph-10">
          <mxGeometry relative="1" as="geometry" />
        </mxCell>
        <mxCell id="QxHgRlPawuZaO6cSkPph-53" value="No" style="ellipse;whiteSpace=wrap;html=1;aspect=fixed;fontSize=11;" vertex="1" parent="WIyWlLk6GJQsqaUBKTNV-1">
          <mxGeometry x="760" y="512.5" width="35" height="35" as="geometry" />
        </mxCell>
      </root>
    </mxGraphModel>
  </diagram>
</mxfile>
